<?xml version="1.0" encoding="UTF-8"?>
<svg xmlns="http://www.w3.org/2000/svg" xmlns:xlink="http://www.w3.org/1999/xlink" id="Calque_1" viewBox="0 0 232.79 88.89">
  <defs>
    <style>.cls-1{fill:none;}.cls-2{clip-path:url(#clippath);}.cls-3{fill:#161615;}.cls-4{fill:#78695b;}.cls-5{clip-path:url(#clippath-1);}.cls-6{clip-path:url(#clippath-3);}.cls-7{clip-path:url(#clippath-2);}.cls-8{fill:url(#Dégradé_sans_nom_2);}.cls-9{fill:url(#Dégradé_sans_nom_2-2);}</style>
    <clipPath id="clippath">
      <rect class="cls-1" width="232.79" height="88.89"></rect>
    </clipPath>
    <clipPath id="clippath-1">
      <path class="cls-1" d="m86.54,74.65h13.68l6.16-16.03c-4.85-1.35-9.09-3.03-11.3-5.62l-8.54,21.65Zm26.71-33.9c-3.85,1.44-7,3.42-8.18,5.96-.03.06-.06.12-.07.19.25.8,2.31,1.82,4.82,2.79l3.44-8.94m13.04-2.65c-2.74.12-5.46.53-8.12,1.2l1.27,3.28h0s4.65,12.05,4.65,12.05c.02,0,.04.01.06.02,5.64,2.16,10.45,4.8,12.22,8.97,1.05,2.59.88,5.52-.47,7.96-.8,1.76-1.92,3.35-3.3,4.7l1.89,4.85h13.5l-16.95-43.03s-1.02-.06-2.43-.06c-.71,0-1.51.01-2.33.06"></path>
    </clipPath>
    <radialGradient id="Dégradé_sans_nom_2" cx="-395.71" cy="-39.85" fx="-395.71" fy="-39.85" r=".62" gradientTransform="translate(17130.22 1835.41) scale(43.08 43.1)" gradientUnits="userSpaceOnUse">
      <stop offset="0" stop-color="#bb925c"></stop>
      <stop offset=".5" stop-color="#9a7f6b"></stop>
      <stop offset="1" stop-color="#54473b"></stop>
    </radialGradient>
    <clipPath id="clippath-2">
      <path class="cls-1" d="m115.99,0l-15.44,39.15-2.07,5.26c-.13.13-.25.26-.36.39-1.76,1.96-2.23,3.61-1.79,5.03.91,2.88,5.6,4.77,11.02,6.27,5.76,1.6,12.32,2.76,16.03,4.2,1.24.42,2.42.98,3.54,1.65,2.89,1.8,3.43,3.87,2.33,6.02-2.07,4.07-10.02,8.39-18.93,11.56-3.54,1.27-7.16,2.33-10.83,3.18-3.88.95-7.85,1.49-11.85,1.61-11.63.03-32.82-3.67-21.56-15.53-14.15,10.14,1.81,17.88,15.33,19.68,2.21.29,4.44.43,6.68.43h.27c10.08-.14,20.05-2.24,29.33-6.18,2.15-.93,4.25-1.99,6.26-3.18,2.79-1.59,5.3-3.61,7.45-6,.83-.95,1.53-1.99,2.09-3.12,2.86-5.89-1.64-9.53-8.04-12.31-5.26-2.29-11.81-3.99-16.6-5.88-4.59-1.81-7.57-3.81-6.23-6.66.1-.21.21-.42.33-.63.1-.16.19-.33.3-.48.05-.09.11-.17.17-.25.24-.35.51-.69.79-1.01t0,0c.45-.5.95-.96,1.47-1.38.15-.12.3-.24.46-.36.67-.51,1.38-.96,2.11-1.37.21-.12.43-.24.65-.36,0,0,0,0,.02,0,.28-.14.57-.29.87-.43.24-.12.48-.23.73-.33l.26-.12c.27-.12.55-.23.83-.34s.57-.22.85-.33c.67-.25,1.36-.47,2.06-.68.88-.27,1.78-.52,2.68-.73.25-.06.49-.12.74-.17s.47-.1.71-.15c.53-.11,1.06-.22,1.58-.3.21-.04.43-.07.64-.1l.78-.12h.02c.92-.13,1.82-.24,2.68-.32.37-.04.74-.06,1.1-.09.4-.03.79-.05,1.16-.06l.64-.02c.92-.03,1.84,0,2.76.06.06,0,.11,0,.16.01,2.4,0,4.79.42,7.05,1.24-1.83-1.23-3.84-2.15-5.97-2.72-.66-.2-1.32-.36-2-.48l-.9-2.25-1-2.54L115.99,0Z"></path>
    </clipPath>
    <radialGradient id="Dégradé_sans_nom_2-2" cx="-404.14" cy="-44.89" fx="-404.14" fy="-44.89" r=".47" gradientTransform="translate(36043.86 4123.19) scale(88.93 88.89)" xlink:href="#Dégradé_sans_nom_2"></radialGradient>
    <clipPath id="clippath-3">
      <rect class="cls-1" width="232.79" height="88.89"></rect>
    </clipPath>
  </defs>
  <g id="Groupe_857">
    <g id="Groupe_34">
      <g class="cls-2">
        <g id="Groupe_33">
          <path id="Tracé_57" class="cls-4" d="m0,74.65h54.26c-.32,1.05-.47,2.15-.43,3.25.21,1.14.61,2.24,1.19,3.25H0v-6.49Z"></path>
        </g>
      </g>
    </g>
    <g id="Groupe_36">
      <g class="cls-5">
        <g id="Groupe_35">
          <rect id="Rectangle_70" class="cls-8" x="86.54" y="38.05" width="61.46" height="43.1"></rect>
        </g>
      </g>
    </g>
    <g id="Groupe_38">
      <g class="cls-7">
        <g id="Groupe_37">
          <rect id="Rectangle_71" class="cls-9" x="51.94" y="0" width="85.26" height="88.89"></rect>
        </g>
      </g>
    </g>
    <g id="Groupe_40">
      <g class="cls-6">
        <g id="Groupe_39">
          <path id="Tracé_60" class="cls-3" d="m24.61,62.82c-3.13,3.48-8.21,5.22-15.22,5.22-1.38-.02-2.77-.14-4.13-.36-1.78-.27-3.54-.66-5.26-1.16v-12.36c1.07.52,2.2.88,3.37,1.08,1.17.19,2.35.29,3.53.28,4.98,0,7.47-4.12,7.47-12.36V11.03h14.94v36.77c0,6.53-1.57,11.54-4.7,15.01"></path>
          <path id="Tracé_61" class="cls-3" d="m81.8,11.03l-12.44,37.26h-.16l-11.89-37.26h-23.53v56.04h14.62l-.33-43.04h.17l13.65,43.04h13.73l14.29-43.04h.16l-.11,30.29,14.48-37.11v-6.19h-22.64Z"></path>
          <path id="Tracé_62" class="cls-3" d="m207.44,81.03V24.99h14.93v44.96h10.42v11.08h-25.35Z"></path>
          <path id="Tracé_63" class="cls-3" d="m203.92,70.43v10.6h-28.47v-44.97h-11.74v44.97h-11.86l-3.07-8v-36.97h-8.11l-4.26-11.07h66.64v10.59h-12.67v11.57h11.3v10.59h-11.3v12.69h13.55Z"></path>
          <path id="Tracé_64" class="cls-4" d="m232.46,11.03v6.49h-99.98l-2.12-6.49h102.1Z"></path>
        </g>
      </g>
    </g>
  </g>
</svg>
